<svg id="Livello_1" data-name="Livello 1" xmlns="http://www.w3.org/2000/svg" viewBox="0 0 229.24 133.27"><defs><style>.cls-1{font-size:56.97px;fill:#4d4d4f;font-family:aposiopesisnormal, aposiopesis normal;letter-spacing:-0.02em;}.cls-2{fill:#77787b;}</style></defs><title>mama-eventi-logo</title><text class="cls-1" transform="translate(130.25 116.58) scale(0.97 1)">eventi</text><path class="cls-2" d="M369.45,262.05v67a3.54,3.54,0,0,1-7.09,0v-67a7.08,7.08,0,0,0-7.09-7.09h-7.09a7.06,7.06,0,0,0-7,7.09v67a3.54,3.54,0,0,1-7.09,0v-67A7.08,7.08,0,0,0,327,255H320a7.06,7.06,0,0,0-7,7.09v67a3.54,3.54,0,0,1-7.09,0v-67A14.12,14.12,0,0,1,320,248H327a14.07,14.07,0,0,1,10.57,4.73A14.48,14.48,0,0,1,348.18,248h7.09A14.15,14.15,0,0,1,369.45,262.05Z" transform="translate(-305.9 -248)"/><path class="cls-2" d="M417.59,262.05v67a3.48,3.48,0,1,1-7,0v-38.8H382.4v38.8a3.54,3.54,0,0,1-7.09,0v-67A14.12,14.12,0,0,1,389.36,248h14.18A14,14,0,0,1,417.59,262.05Zm-7,0a7.25,7.25,0,0,0-7.09-7.09H389.36a7.06,7.06,0,0,0-7,7.09v21.14h28.23Z" transform="translate(-305.9 -248)"/><path class="cls-2" d="M487,262.05v67a3.54,3.54,0,0,1-7.09,0v-67a7.08,7.08,0,0,0-7.09-7.09h-7.09a7.06,7.06,0,0,0-7,7.09v67a3.54,3.54,0,0,1-7.09,0v-67a7.08,7.08,0,0,0-7.09-7.09H437.5a7.06,7.06,0,0,0-7,7.09v67a3.54,3.54,0,0,1-7.09,0v-67A14.12,14.12,0,0,1,437.5,248h7.09a14.06,14.06,0,0,1,10.57,4.73A14.48,14.48,0,0,1,465.73,248h7.09A14.15,14.15,0,0,1,487,262.05Z" transform="translate(-305.9 -248)"/><path class="cls-2" d="M535.14,262.05v67a3.48,3.48,0,1,1-7,0v-38.8H500v38.8a3.54,3.54,0,0,1-7.09,0v-67A14.12,14.12,0,0,1,506.91,248h14.18A14,14,0,0,1,535.14,262.05Zm-7,0a7.25,7.25,0,0,0-7.09-7.09H506.91a7.06,7.06,0,0,0-7,7.09v21.14h28.23Z" transform="translate(-305.9 -248)"/></svg>